<?xml version="1.0" encoding="UTF-8"?>
<svg id="Layer_1" data-name="Layer 1" xmlns="http://www.w3.org/2000/svg" viewBox="0 0 48 34.5">
  <defs>
    <style>
      .cls-1 {
        fill: #ededed;
        stroke-width: 0px;
      }
    </style>
  </defs>
  <path class="cls-1" d="M1.17,22.64v-2.16h6.14l1.45,1.62.68-.76-1.73-1.94H1.17v-1.63h5.57c.4.01.76-.19,1.01-.56.24-.36.24-.75.24-1.06v-.45c0-.45.01-.89,0-1.67v-.3s-4.75-3.09-4.75-3.09c.4-.36.85-.66,1.34-.89l.12.1.14-.21c.34-.14.69-.25,1.05-.32,3.56-.68,7.17-1.08,10.75-1.2l-.03-1.08c-3.61.12-7.26.53-10.85,1.21l3.09-4.68c.84-1.27,2.04-1.95,3.46-1.95h4.32V.55h-4.32c-1.71,0-3.22.85-4.23,2.39l-3.51,5.31v-2.32h-2.07c-1.36,0-2.47,1.24-2.47,2.76v.98h2.79C1.2,11.01.2,13.1.2,15.41v11.84c0,1.3.93,2.36,2.07,2.36h3.58c1.14,0,2.07-1.06,2.07-2.36v-3.54h8.68v-1.08H7.93s-6.76,0-6.76,0ZM7.03,15.7v.46c0,.22,0,.34-.05.41-.06.1-.14.14-.24.14v.54-.54s-5.5-.01-5.5-.01v-.96c0-1.58.51-3.06,1.44-4.2l.86.56c-.53.42-.88,1.11-.88,1.89,0,1.28.93,2.32,2.07,2.32,1.07,0,1.95-.92,2.05-2.09l.24.16c0,.59,0,.96,0,1.34ZM5.84,13.98c0,.68-.5,1.24-1.11,1.24s-1.11-.56-1.11-1.24c0-.61.4-1.12.94-1.22l1.2.78c.05.14.08.29.08.44ZM2.47,7.01h1.11v1.59H.97c.04-.88.7-1.59,1.5-1.59ZM6.96,24.26h-.97v1.08h.97v.54h-.97v1.08h.97v.3c0,.71-.5,1.29-1.11,1.29h-.34v-2.67h-.97v2.67h-.97v-2.67h-.97v2.67h-.34c-.61,0-1.11-.58-1.11-1.29v-.3h.97v-1.08h-.97v-.54h.97v-1.08h-.97v-.54h5.79v.54Z"/>
  <path class="cls-1" d="M10.82,14.56h5.8v-1.08h-6.79v.54c0,3.21,2.24,4.85,4.34,5.31.89.2,1.67.34,2.37.44l.12-1.07c-.68-.1-1.43-.23-2.31-.43-1.59-.35-3.29-1.51-3.53-3.71Z"/>
  <path class="cls-1" d="M46.41,0h-27.24c-.88,0-1.59.8-1.59,1.77v22.87c0,.98.71,1.78,1.59,1.78h9.03v3.77h-1.21c-1.18,0-2.17,1.11-2.17,2.43v1.89h15.93v-1.89c0-1.31-1-2.43-2.17-2.43h-1.21v-3.77h9.03c.88,0,1.59-.8,1.59-1.78V1.77c0-.98-.71-1.77-1.59-1.77ZM19.17,1.08h27.24c.34,0,.62.31.62.7v19.25h-28.48V1.77c0-.38.28-.7.62-.7ZM38.58,31.27c.63,0,1.21.64,1.21,1.35v.81h-14v-.81c0-.71.58-1.35,1.21-1.35h1.21v1.08h9.17v-1.08h1.21ZM36.41,31.27h-7.24v-4.85h7.24v4.85ZM46.41,25.34h-27.24c-.34,0-.62-.31-.62-.7v-2.54h28.48v2.54c0,.38-.28.7-.62.7Z"/>
  <polygon class="cls-1" points="24.83 17.78 29.19 19.1 36.42 16.47 41.74 18.11 46.22 16.41 45.91 15.39 41.71 16.98 36.4 15.34 29.17 17.98 24.82 16.66 20.47 18.02 20.73 19.06 24.83 17.78"/>
  <rect class="cls-1" x="23.38" y="3.77" width=".97" height="9.16"/>
  <rect class="cls-1" x="21.93" y="6.47" width=".97" height="6.47"/>
  <rect class="cls-1" x="20.48" y="8.09" width=".97" height="4.85"/>
  <rect class="cls-1" x="24.83" y="3.77" width=".97" height="9.16"/>
  <rect class="cls-1" x="26.27" y="9.7" width=".97" height="3.23"/>
  <rect class="cls-1" x="43.65" y="3.77" width=".97" height="9.16"/>
  <rect class="cls-1" x="27.72" y="3.77" width=".97" height="9.16"/>
  <rect class="cls-1" x="29.17" y="4.85" width=".97" height="8.09"/>
  <rect class="cls-1" x="30.62" y="6.51" width=".97" height="6.43"/>
  <rect class="cls-1" x="32.07" y="3.77" width=".97" height="9.16"/>
  <rect class="cls-1" x="33.51" y="11.23" width=".97" height="1.71"/>
  <rect class="cls-1" x="34.96" y="6.47" width=".97" height="6.47"/>
  <rect class="cls-1" x="36.41" y="7.55" width=".97" height="5.39"/>
  <rect class="cls-1" x="37.86" y="4.85" width=".97" height="8.09"/>
  <rect class="cls-1" x="39.31" y="3.77" width=".97" height="9.16"/>
  <rect class="cls-1" x="40.73" y="7.55" width=".97" height="5.39"/>
  <rect class="cls-1" x="42.2" y="4.85" width=".97" height="8.09"/>
</svg>