<?xml version="1.0" encoding="UTF-8"?>
<svg id="Layer_1" data-name="Layer 1" xmlns="http://www.w3.org/2000/svg" viewBox="0 0 47 30.41">
  <defs>
    <style>
      .cls-1 {
        fill: #ededed;
        stroke-width: 0px;
      }
    </style>
  </defs>
  <path class="cls-1" d="M1.45,23.8v-2.2h7.54l1.8,1.63.69-.62-2.08-1.89H1.45v-2.2h6.8c.46.01.86-.17,1.14-.5.27-.33.28-.69.28-.97v-.44c0-.43.01-.85,0-1.61v-.25s-5.66-2.93-5.66-2.93c.91-.66,2.02-1.13,3.25-1.32,4.97-.77,10.03-1.18,15.03-1.22v-.88c-5.06.04-10.17.46-15.19,1.23-.17.03-.34.06-.51.1l4.12-5.09c1.05-1.29,2.53-1.97,4.29-1.97h7.28v-.88h-7.28c-2.05,0-3.85.83-5.07,2.33l-4.61,5.69v-2.29h-2.42c-1.6,0-2.91,1.19-2.91,2.64v.88h3.54c-1.87,1.3-3.05,3.32-3.05,5.56v11.62c0,1.22,1.04,2.21,2.31,2.21h4.1c1.27,0,2.31-.99,2.31-2.21v-3.52h13.08v-.88H1.45ZM8.71,16.58v.45c0,.22,0,.36-.08.44-.1.12-.22.17-.37.17v.44-.44s-6.8-.01-6.8-.01v-1.01c0-1.58.65-3.05,1.84-4.18l1.28.67c-.7.39-1.18,1.08-1.18,1.88,0,1.22,1.09,2.2,2.42,2.2s2.41-.98,2.42-2.19l.48.25c0,.59,0,.96,0,1.34ZM7.27,14.98c0,.73-.65,1.32-1.45,1.32s-1.45-.59-1.45-1.32c0-.68.57-1.24,1.32-1.31l1.43.74c.09.18.15.37.15.57ZM2.91,8.37h1.45v1.76H.97c0-.97.87-1.76,1.94-1.76ZM8.24,25.56h-.97v.88h.97v.88h-.96v.88h.96c0,.73-.6,1.32-1.34,1.32h-.6v-3.09h-.97v3.09h-.97v-3.09h-.97v3.09h-.6c-.74,0-1.33-.59-1.34-1.32h.99v-.88h-.99v-.88h.99v-.88h-.99v-.88h6.78v.88Z"/>
  <path class="cls-1" d="M13.11,15.43h9.18v-.88h-10.18v.44c0,3.1,2.69,4.68,5.2,5.12,1.99.35,3.52.53,4.96.59l.04-.88c-1.39-.05-2.87-.23-4.81-.57-2.01-.35-4.15-1.54-4.39-3.81Z"/>
  <path class="cls-1" d="M42.64,1.76h-2.42v-.44c0-.73-.65-1.32-1.45-1.32h-7.27c-.8,0-1.45.59-1.45,1.32v.44h-6.78v28.21h23.74V1.76h-4.36ZM30.53,2.64h.48v-1.32c0-.24.22-.44.48-.44h7.27c.27,0,.48.2.48.44v1.32h2.42v2.2h-13.08v-2.2h1.94ZM43.61,23.98v2.9h-3.19l3.19-2.9ZM39.73,26.26v-2.9h3.19l-3.19,2.9ZM38.76,22.48v4.41h-12.11V4.41h.97v1.32h15.02v-1.32h.97v18.07h-4.85ZM46.03,29.09h-21.8V2.64h3.39v.88h-1.94v24.24h18.9V3.53h-1.94v-.88h3.39v26.44Z"/>
  <path class="cls-1" d="M27.62,10.58h2.91v-2.64h-2.91v2.64ZM28.59,8.81h.97v.88h-.97v-.88Z"/>
  <path class="cls-1" d="M27.62,15.43h2.91v-2.64h-2.91v2.64ZM28.59,13.66h.97v.88h-.97v-.88Z"/>
  <path class="cls-1" d="M27.62,20.27h2.91v-2.64h-2.91v2.64ZM28.59,18.51h.97v.88h-.97v-.88Z"/>
  <rect class="cls-1" x="31.49" y="7.93" width="8.72" height=".88"/>
  <rect class="cls-1" x="31.49" y="9.7" width="5.81" height=".88"/>
  <rect class="cls-1" x="31.49" y="12.78" width="8.72" height=".88"/>
  <rect class="cls-1" x="31.49" y="14.54" width="5.81" height=".88"/>
  <rect class="cls-1" x="31.49" y="17.63" width="8.72" height=".88"/>
  <rect class="cls-1" x="31.49" y="19.39" width="5.81" height=".88"/>
</svg>