<?xml version="1.0" encoding="UTF-8"?>
<svg id="Layer_1" data-name="Layer 1" xmlns="http://www.w3.org/2000/svg" viewBox="0 0 59.65 44.25">
  <defs>
    <style>
      .cls-1 {
        fill: #ededed;
        fill-rule: evenodd;
        stroke-width: 0px;
      }
    </style>
  </defs>
  <path class="cls-1" d="M4.52,21.16c-4.85-2.58-4.32-5.45.58-5.15l1.1,2.14,2.26-7.31c.89-2.88,2.36-5.49,5.27-5.49h17.65v2.88H14.69c-2.21,0-3.34,1.99-4.02,4.18l-2.12,7.36h22.81v13.2c.02,2.37,1.86,4.29,4.14,4.3h18.87l-.13,2.23v3.03c0,.95-.74,1.71-1.65,1.71h-7.01c-.91,0-1.65-.77-1.65-1.71v-1.37H10.68v1.38c0,.94-.74,1.71-1.65,1.71H2.01c-.91,0-1.65-.77-1.65-1.71v-3.95c0-.09,0-.18,0-.27-.51-7.07-1.26-13.5,4.17-17.16ZM36.46,3.21h3.96v2.66h-1.71c-.77,0-1.39.65-1.4,1.45v22.36c0,.8.63,1.45,1.4,1.45h17.03c.77,0,1.39-.65,1.4-1.45V7.33c0-.8-.63-1.44-1.4-1.45h-1.71v-2.66h3.96c.91,0,1.65.77,1.66,1.72v26.94c0,.95-.75,1.71-1.66,1.72h-21.53c-.91,0-1.65-.77-1.66-1.72V4.93c0-.95.74-1.72,1.66-1.72h0ZM44.03,25.51c-.49,0-.89-.41-.89-.92,0-.51.4-.92.89-.92h6.4c.49,0,.89.41.89.92,0,.51-.4.92-.89.92h-6.4ZM42.14,19.96c-.49,0-.89-.41-.89-.92,0-.51.4-.92.89-.92h10.19c.49,0,.89.41.89.92,0,.51-.4.92-.89.92h-10.19ZM40.47,14.37c-.49.04-.92-.34-.95-.85s.33-.95.82-.99c.04,0,.09,0,.13,0h13.52c.49-.04.92.34.95.85s-.33.95-.82.99c-.04,0-.09,0-.13,0h-13.52ZM42.72,2.36h1.87c.12-1.42,1.33-2.48,2.7-2.35,1.2.11,2.15,1.1,2.26,2.35h2.19c.15,0,.27.13.28.29v3.88c0,.16-.12.28-.28.29h-9.03c-.15,0-.27-.13-.28-.29v-3.88c0-.16.12-.29.28-.29ZM46.05,3.54c.17.25.4.46.67.6.21.06.44.06.65,0,.34-.19.62-.5.78-.86,0-.09,0-.19,0-.28,0-.64-.5-1.16-1.12-1.16-.62,0-1.12.52-1.12,1.16h0c0,.19.04.37.11.54h.02ZM13.53,29.59l-6.27-.82c-1.46-.17-1.87.47-1.37,1.8l.67,1.7c.19.41.48.76.84,1.01.42.26.91.39,1.4.4l5.57.05c1.34,0,1.94-.56,1.5-1.85-.3-1.17-1.23-2.05-2.38-2.26l.02-.02Z"/>
</svg>