<?xml version="1.0" encoding="UTF-8"?>
<svg id="Layer_1" data-name="Layer 1" xmlns="http://www.w3.org/2000/svg" baseProfile="tiny" version="1.2" viewBox="0 0 1024 1024">
  <path d="M815,120.6c-1.4.2-5.6.9-9.5,1.5-20.4,3.3-43.5,15.5-57.1,30.3-10.5,11.3-15.3,19.6-38.3,66.1-14.6,29.4-24.3,47.6-29.2,55-8.5,12.7-22.4,27.1-34.4,35.7-10.4,7.3-27.2,16.6-37.4,20.7-9.6,3.7-9.9,3.7-26.8-3.6-14.9-6.3-47.3-17-57.1-18.6-9.5-1.7-16.6-.9-22.2,2.5-2.2,1.3-7.6,5.9-12.2,10.4-4.6,4.4-10.9,10.2-14.1,12.7-5.7,4.7-5.9,4.7-13.2,4.7-16.7,0-31.7,9.7-59.2,38.4-7.6,7.9-13.8,13.4-17.5,15.5-11.5,6.5-17.9,15.9-28.3,41.5-2.5,6.1-3.5,7.3-9.8,11.9-12.3,9-17.1,17.1-20.1,34.4-2.8,15.8-2.2,25.6,2.8,45.5,2.5,9.7,4.6,19.1,4.8,21.1l.3,3.5-31.5,21.4c-17.3,11.8-32.4,22-33.6,22.6-2,1.1-2.1.7-3.9-9.1-4.2-24-5.2-55.5-2.5-76.2,4.5-33.8,17.6-71.6,34-98,16.7-26.9,42.7-54.2,69.6-73.5,35.4-25.3,79.5-40.9,120.9-42.9,35-1.7,65.6,4.1,99,19l11.3,5,9.2-4c33.2-14.3,53.7-32.9,70.9-64.3l4.2-7.6-7.8-4.6c-10.4-6.2-34.5-18.4-46.3-23.4-30-12.7-65.1-21-101.7-24.2-9.9-.9-60.3-.6-65.8.4-1.6.3-7,1-12,1.6-14.8,1.9-25.1,3.9-41.4,8.1-45.3,11.6-94.3,37.4-129.1,67.8-36.4,31.8-58.9,60.7-79,101.6-20.4,41.6-32.2,84.6-36,131.9-3.5,43.9,2.5,95.6,16,136.9,2.2,6.8,4,12.8,4,13.4,0,1.5-11.1,8.6-12,7.6-1.5-1.5-7.8-18.8-11-29.6-20.8-72.1-18.4-150.1,6.9-223.8,6.6-19.3,16.7-42.7,24.3-56.4,48-86.6,132.9-149.4,229.9-170,24.6-5.2,37.8-6.6,66.4-7.2,39.8-.8,65.6,2,99.2,10.7,30.7,8,61.2,20.5,90,37.1,5.6,3.3,10.6,5.9,11,5.9.9,0,9.3-16.3,9.3-18s-18.7-12.3-33-19.2c-45.1-21.8-88-33.4-138.4-37.4-24.7-2-60.4-1.1-79.2,2-1.6.3-6.5,1-10.9,1.6-12.5,1.8-35.6,7.4-51.3,12.4-46.5,14.7-88.7,37.6-124.7,67.6-57.3,47.6-94.9,105.3-117.4,180-11.5,38.2-17.8,83.6-16.6,120.5,1.6,50.6,9.3,90.5,25.4,130.9,1.8,4.3,3,7.9,2.9,8-.2.1-3.5,2.5-7.4,5.3-4.8,3.5-8.7,5.4-12.5,6.2-12,2.6-26.7,12.3-35.4,23.6-7.3,9.3-12.5,24.2-12.5,35.5s7,30.5,17.4,41.6c7,7.6,14.1,12.3,24.4,16.2,5.8,2.2,8.2,2.6,18.7,2.6s12.8-.3,19.5-2.8c10.2-3.9,18.6-9.5,30.9-21,5.7-5.3,10.6-9.6,11-9.5.3,0,4.9,5,10.1,11,17.7,20.5,38.5,39.1,63.4,56.8,52.4,37.2,110.3,58.8,177.6,66.2,17.1,1.9,62.2,1.6,80-.4,62.7-7.4,116.3-26.9,167.5-61.2,22.6-15.1,35.7-25.8,54.9-44.5,40.8-40,68.3-84.2,87.1-140.3,13.8-41.3,19.4-71.6,21.4-115.6,2.3-49.6-5.7-99.8-23.9-151.6-3-8.6-10.8-27.5-11.6-28.4-.9-.9-20.5,5.3-20,6.3.2.6,2.5,5.6,4.9,11.1,10.5,23.7,21.2,61.4,26.1,91.5,4,24.4,5.3,51.9,3.7,76.3-.7,9.8-1.4,18.8-1.6,20s-.6,4.9-1,8.2c-1.1,9.8-5.4,32.2-8.6,45-16.2,64.3-44.9,116.5-87.9,159.6-57.4,57.5-135.1,94.5-216,103-17.7,1.9-60.9,1.6-78-.5-68.5-8.3-134.1-36.6-185.5-79.9-9.7-8.1-35.7-34.1-40.7-40.5-4.6-6-4.9-5.3,3.8-11.5l5-3.6,6.5,7.6c8.4,9.9,30.2,31,40.9,39.6,36.1,29.1,83.8,52.8,127.8,63.6,40.6,10,89.1,12.4,134.1,6.5,56.8-7.3,119.2-35.1,168.1-74.8,12-9.7,34.5-32.2,43.7-43.6,27.9-34.6,46.6-71.7,60.3-120.3,13.9-48.9,17.3-105.3,9.4-153.5-4.6-28.1-15.1-64.9-25.1-88.2-2.5-5.8-4.8-10.9-5.3-11.3-1-1.1-28.2,8.1-45.5,15.5-22,9.4-31.1,14.5-38.9,21.9l-6.9,6.5,3.6,6.5c9,16.2,18.7,46.9,22.1,70,2.4,16.5,2.7,21.8,2.8,38.1.1,31.3-5.6,63.9-15.9,90.8-5.1,13.6-13,29.9-20.1,41.8-28.7,48.2-84.1,91.3-138.9,108.1-23.7,7.3-51.7,10.8-73.5,9.1-23-1.7-37.9-4.7-57.5-11.4-34.6-11.7-63.4-30.3-92.3-59.5-14.8-15-23.1-25.5-21.4-27,4.1-3.7,61.6-47.4,65-49.4.8-.5,2.2,2,4,7.1,9.8,27.4,12.2,31,34.5,52.4,12.6,12,17.9,17.8,20.4,22.3,4.1,7.2,12.1,26.6,16,38.5,1.5,4.7,2.9,8.7,3.1,8.9.6.7,21.1,3,32.4,3.7,28.6,1.6,62.8-5.3,92.7-18.9,10.6-4.8,41.3-22,41.3-23.2s-1-.1-15.4,6c-11.9,5-17,5.7-9.6,1.3,4.1-2.4,23.8-16.1,30-20.8,3.8-2.9-23.6,8.7-41,17.4-8.5,4.3-15.9,8.1-16.5,8.5-.5.4-1.9,1.1-3,1.5-1.8.6-1.8.5-.5-.7.8-.8,12.8-9.9,26.5-20.2,27.8-20.8,28.1-21,24.5-19.7-6.5,2.6-30.5,14.5-39,19.4-12.2,7.1-29,16-29,15.3s4.4-3.7,9.8-7.7c22.7-16.8,30.1-22.5,36.1-27.7,14.5-12.7,14.6-12.5-1.4-4.2-8.2,4.3-21.3,11.4-29,15.8-24.4,14-27.6,14.9-13.5,4,23.1-17.8,41.1-32.7,39.4-32.7s-26.8,12.6-36.5,18.2c-14.6,8.5-20.9,12-20.9,11.5s5.1-4.6,11.3-9.8c9.9-8.2,25.7-21.9,35-30.2,2.4-2.1,2.6-2.5.9-1.7-1.2.6-11.6,3.5-23,6.5-11.5,2.9-23.3,6.3-26.2,7.4-3,1.1-5.6,1.9-5.8,1.7-.7-.8,62.5-38,72.3-42.7,8.9-4.2,25.5-10.3,26-9.7.1.2,2.6,3.4,5.6,7.3,2.9,3.8,11.2,14.6,18.3,24,7.1,9.3,13.9,18.2,15.1,19.7l2.3,2.7,2-2.2c1.1-1.2,4.3-5.8,7.1-10.1l5.1-7.9-2.5-3.2c-6.2-8.2-24.9-35.3-26.3-38.2l-1.5-3.2,7.6-8.1c10-10.6,13.7-18.1,23.6-48.3,12.4-37.7,12.6-38.5,12.6-57.2s0-16.1-3.7-26.6c-2-5.8-8.4-21.2-14.2-34.3-5.8-13-10.6-24.2-10.5-24.9,0-2.1,40.8-27.1,58.5-36,21.7-10.9,48.8-21.3,85.4-32.8,40.3-12.7,65.6-22.7,77.6-31,7.8-5.3,16.7-14.8,23.4-24.9,18.9-28.9,30.7-67.7,24.1-80-2.7-5.1-7.4-8-13.1-8s-6.4,1.2-36.3,20.9c-17.4,11.6-32.5,21.4-33.5,22-1.2.6-4,.5-8.7-.5-6.5-1.3-7.4-1.8-12-6.8-2.7-3-9.9-10.6-15.9-17l-10.9-11.7.2-6.6c.2-5.8.5-6.9,2.8-8.7,4.8-3.8,15.4-10.9,37.8-25.3,12.1-7.8,23.4-15.5,25.1-17.1,4.7-4.3,6.8-8.9,6.7-14.9-.2-7.3-3.9-12.4-11.8-16.3-5.3-2.6-8.8-3.6-22-6.6-3.6-.7-28.9-1.4-32.5-.8ZM855.5,138.5c3.8.9,7.5,2.1,8.2,2.7,2.3,1.9,1.4,5.5-1.9,8-3.1,2.3-43.3,27.9-59.5,37.8-8.3,5.1-8,4.6-8.9,21.5-.9,15.2-.8,15.2,16.4,34.5,20.3,22.7,19.4,22,30.9,24.1,5.4,1,12.4,1.8,15.7,1.9h5.9l31.3-21c17.2-11.6,31.5-21,31.8-21s.6,1.6.6,3.4c0,4.2,2,2.6-32.8,25.9-21.3,14.3-27.1,17.7-30.9,18.3-2.8.4-10-.1-18.7-1.2l-14.1-1.9-15.3-17c-18.3-20.3-21.6-25-23.7-33.3-1.4-5.2-1.5-8.2-.6-19.5,1.3-15.8-1-13.2,26-30.2,40.9-25.7,40.8-25.7,38.4-26.6-1.2-.4-7-1.4-12.8-2-27.2-3.2-55.2,5.2-71.7,21.4-12.9,12.7-19.2,27.2-19.2,44.2s1.9,19.7,8.1,32.8l4.7,9.7-2.9,3c-1.6,1.7-3.2,3-3.5,3s-2.5-3.5-4.7-7.8c-25.9-48.9,1.1-100.9,58-111.8,9.7-1.8,35.7-1.2,45.2,1.1ZM509.3,214.8c1.9,2.6,7.1,10.2,11.7,17,4.5,6.8,8.4,12.2,8.6,11.9.3-.2,1-7,1.8-15.1.7-8,1.5-14.9,1.8-15.2s3.3-.2,6.7.2l6.1.7v4.1c0,4.2-2.4,35.1-3.6,45.8l-.7,5.8h-4.1c-2.2,0-5-.3-6.1-.6-1.2-.3-6.5-7.2-13-16.8l-11-16.3-.6,6.1c-.4,3.4-.7,10.3-.8,15.3v9.3h-13.9l.5-27.3c.2-14.9.6-27.7.8-28.3.2-.7,2.8-1.2,6.4-1.3h6c0-.1,3.4,4.7,3.4,4.7ZM734.9,221c1.5,13.6,4.5,23.9,9.9,34.3,2.6,5.1,4.8,9.5,5,9.8.2.4-4.6,4.4-10.5,9-16.7,12.9-27.1,21.8-27.8,24-.8,2.4.3,3.9,22.8,30.3,8.7,10.2,16.8,19.2,17.9,20,2.7,1.9,5.7.7,16.1-6.1,7.1-4.7,7.5-4.8,9.7-3.4,1.3.9,4.9,1.8,7.9,2.1l5.6.6-6,1.8c-9.4,2.8-32.7,11.8-47,18-16.5,7.3-28,13.4-53,28.3-25.8,15.4-24.3,14.7-26.1,13.2-.8-.6-1.4-1.5-1.4-2s4.6-3.5,10.3-6.9c23-13.9,36-24.6,39.2-32.4,9.4-22.5-10.9-40.6-33.5-29.9-3.6,1.6-14,8.4-23.2,14.9-34.7,24.8-43.2,30.2-38.7,24.8,1.1-1.3,19.6-16.7,37-30.7,5.1-4.1-18.4,7.8-30.1,15.2-10.3,6.5-10.8,6.5-10.9-.5-.1-2.6.5-3.3,3.7-4.8,17-8.1,44.8-26.2,57.3-37.2,19.8-17.6,29.8-32.2,49.7-72.6,8-16.3,14.7-29.6,14.8-29.5s.7,4.5,1.3,9.7ZM454.2,218.2c5.5,2.3,12.1,9.1,14.9,15.1,2.3,5.3,2.5,15.6.3,22-4.9,14.5-23.4,23.2-38.5,18.2-7.9-2.7-16.2-11.2-18.5-19-7.2-24.9,17.6-46.4,41.8-36.3ZM591.3,224.2c18.8,6.3,26.2,14.5,26.1,29.3-.1,16.5-11.8,28.6-27.8,28.7-4.3,0-9.6-1-18.1-3.7-6.6-2-12.3-4-12.8-4.4-.4-.4,1.8-8.6,4.9-18.2s6.7-21,8.1-25.4c1.3-4.4,2.6-8.6,2.9-9.4.6-1.7,4.8-.9,16.7,3.1ZM391.4,236.2c.3,4,1,16.5,1.6,27.8s1.3,21.9,1.5,23.5c.5,2.9.1,3.3-6.5,6.9l-7,3.8-3.3-2.8c-6.9-5.8-40.7-36.9-40.7-37.5s2.6-2.3,5.7-4.4c3.7-2.5,6.1-3.5,6.9-2.9.7.5,7.1,6.2,14.2,12.6,7.1,6.5,13.5,11.8,14.2,11.8s1-1.4.6-4.8c-.3-2.6-.8-11.5-1.2-19.7l-.6-15,6.3-3.2c3.5-1.7,6.7-3.2,7.1-3.2.3-.1.9,3.2,1.2,7.1ZM810,271c16.9,19.8,17,19.9,17,22.5s-1.5,3.5-5.7,6.4c-3.1,2.3-6.2,4.1-7,4.1-2.3,0-1.4-2.5,2.2-6,1.9-1.9,3.5-3.9,3.5-4.4s-5-7-11.1-14.1c-6-7.2-13.6-16.3-16.7-20.3-4.5-5.8-6.1-7.2-7.7-6.7-8.9,2.5-9.4,1.6-1.7-3.5l4.7-3.1,5.5,5.8c3,3.2,10.7,11.9,17,19.3ZM780,261.8c0,.5-3.9,5-8.6,10-6.3,6.8-9.2,9.2-11.1,9.2-3.3,0-6,1.5-10.7,5.9l-3.9,3.6,1.9-3.4c4.5-8,17.9-20.2,26.5-24.1,4.9-2.2,5.9-2.4,5.9-1.2ZM789,269.6c0,.8-8.2,10.7-13.4,16.1-3,3.3-4.8,4.3-7.1,4.3-3.3,0-6.1,1.6-11.4,6.4-3.6,3.3-3.5,2.9,1.5-4.9,4.9-7.6,14.6-16.3,23-20.5s7.4-2.6,7.4-1.4ZM797,279.1c0,1.7-7.6,11.3-12.9,16.2-4.5,4.2-5.5,4.8-8.2,4.2-3.2-.7-6,.6-11.3,5.4l-2.9,2.6,1.9-3.4c3.4-6.2,18.2-20,25.3-23.6,6.4-3.2,8.1-3.5,8.1-1.4ZM331.7,295.7c13.9,8.2,25.3,15.1,25.3,15.6s-2.8,2.7-6.1,5.2l-6.1,4.5-3.7-2.2c-2-1.2-4.3-2.6-5.3-3.2-1.3-.8-2.9,0-7.3,3.4-3.2,2.4-5.9,4.9-6.2,5.6-.2.6.3,3.8,1.1,7l1.6,5.9-3.3,2.8c-6.6,5.7-10.7,8.9-10.7,8.3s-3.4-13.9-7.6-30.3l-7.6-29.8,4.3-3.7c2.4-2.1,4.8-3.8,5.3-3.8s12.4,6.6,26.3,14.7ZM805.8,287.7c-.2.5-1.4,3.5-2.6,6.8-2.1,5.4-3.1,6.5-10,11.5-8.9,6.4-9.4,6.7-9,4.7.2-.9,0-1.6-.4-1.6-2.7-.3-4,.4-9.7,4.5-4.9,3.5-6,4-5,2.2,2.3-4.4,18-18.9,25.7-23.8,6.8-4.4,12-6.4,11-4.3ZM737.7,293.6c1,2.7-1.4,6.6-3.9,6.2-3-.4-3.4-3.2-.9-5.7s3.9-2.7,4.8-.5ZM745,302c.9,1.7.6,2.5-1.4,4.5-4.8,4.8-8.5,2-4.5-3.4,2.6-3.6,4.4-3.9,5.9-1.1ZM889,304c-4.7,4.1-18.1,10.6-25.5,12.5-9.7,2.5-30.9,2.3-42-.5-5-1.2-10.3-3-12-3.8-2.7-1.5-2.8-1.7-.9-2,1.2-.2,7.5.4,14,1.2,13.7,1.8,29.5,2.1,38,.5,7.1-1.2,22.6-6.3,27.4-8.9,4.8-2.7,5.1-2.4,1,1ZM752,311.9c0,3.3-2.1,5.4-4.7,4.9-4-.8-1.5-7.8,2.9-7.8s1.8.7,1.8,2.9ZM759,318.5c1.6,2,.4,5-2.6,6.4-4.6,2-6.1-1.7-2.4-5.7,2.4-2.6,3.3-2.7,5-.7ZM555.6,336.1c24,8.6,31.8,12.1,33.8,15.1,3.3,5.1,14.1,36,13.3,38.2-.3.7-2.2,2.1-4.2,3-3.6,1.8-3.8,1.7-13.6-1.5-5.6-1.8-9.9-3.8-9.9-4.5s1.6-3.3,3.5-5.8,3.4-4.6,3.2-4.6c-.4,0-11.1,4.3-15.9,6.4-2.1.9-4.1,1.6-4.6,1.6s-1.4-2.7-2-5.9l-1.3-6-5.5-1.6c-10.8-3.1-61.5-22.8-60.7-23.6s22.7-5.1,30.3-6.1c2.2-.3,1.7-.8-3.5-3.5-3.3-1.8-7.3-4.1-8.8-5.1l-2.8-1.9,5.2-3.5,5.2-3.5,9.6,3c5.3,1.6,18.2,6,28.7,9.8ZM765.4,326.6c.8,2.1-.9,5.1-3.5,5.9-3.3,1.1-4-.7-1.8-4.3,2.3-3.5,4.3-4.1,5.3-1.6ZM478,363.2c7.8,5.1,28.5,17.3,47.2,27.8,4.3,2.4,9.6,6,11.8,8.1l4.1,3.8-1.7,3.8c-2.7,6.3-4.4,12.4-4.4,16.1,0,10.2,8.6,24,20.5,32.9,6.9,5.2,7,5.4,9.3,13,4,13.5,7,28.6,7.7,38.4.7,9,.6,9.5-1.6,11.5-3.6,3.1-18,13.4-18.9,13.4s-.1-17.8,1.2-21.9c.6-1.9,2.9-5.4,5.2-7.9l4.1-4.5-6.1,3.1c-9.7,4.9-11,7-14.2,23.7-.7,3.2-1,1.5-1.6-9-.5-7.2-1-14.6-1.1-16.5-.2-1.9-4.2-13-8.9-24.5-4.7-11.6-9.4-23.3-10.3-26.1l-1.6-5.2,4.1-5.8c2.3-3.2,4-5.9,3.8-6.1s-3.8,1.3-8,3.2-8.1,3.5-8.5,3.5-1.4-2.5-2.1-5.5c-1.5-6.4-1.7-6.6-9-9.3-10.3-3.8-27.8-12-33.7-15.7-4.3-2.8-21.5-15.5-27.2-20.2-.2-.1-.2-.5.1-.8.7-.8,15.5-2.7,26.1-3.4l9.8-.6-8.8-6.6c-10.7-8.1-12.2-8.9-16.7-8.9s-3.7-.4-4-.9,1.5-2.8,4-5.1l4.6-4.2,8.1.4c8,.4,8.4.5,16.7,6ZM676.7,361.6c1.6.4,2.4,1.7,2.9,4.2.8,4.3-.9,7.9-5.1,10.5-1.7,1-9.7,6.1-17.8,11.3-8.2,5.2-15.2,9.4-15.7,9.4-3.1,0-.7-2.9,8.6-10,10.4-8.1,10.5-8.2,9-10.5-.9-1.4-1.6-4.6-1.6-7.4,0-6.6,2.1-8.1,11-8.1s7.5.3,8.7.6ZM570,399.5c7.4,1.4,14.5,3,15.7,3.5,1.6.6,2.8,2.8,4.3,7.7,2.6,8.5,5.6,14.4,6.4,12.3,1.5-4.3,2.6-9.9,2.6-13.2s.3-3.9.8-4.1c.9-.6,26.9,4.7,35.2,7.2,4.4,1.4,7.5,3.1,9.7,5.3,3.2,3.4,21.8,42.8,31.1,65.8,3.9,9.7,4.7,12.8,5,19.8.6,12.1-.9,18.7-11.5,50.2-11.2,33.2-11.8,34.9-16.8,41.5-9.2,12.4-41.8,31.4-101,59-31.4,14.7-43.9,19.9-64,27-1.1.4,2.5-3.6,8-8.9,7-6.8,9.2-9.5,7.5-9-2.3.6-36.1,2.3-36.8,1.9-.2-.2,1.4-1.2,3.4-2.5,6.7-3.9,28.8-21.4,27.6-21.8-3.8-1.2-33.4,5.4-43.6,9.7-2.5,1.1-4.6,1.8-4.6,1.6s7.7-6.5,17-14.1c9.4-7.5,16.8-13.9,16.6-14.1-.8-.9-12.1,1.9-21.5,5.3-5.2,1.8-9.7,3.1-10,2.9-.7-.8,17-17.8,23.7-22.8,11.6-8.5,21.9-10.6,34-6.9,3.2,1.1,12.3,5.8,20.2,10.5,7.8,4.8,15.1,8.7,16.1,8.7,1.6,0,37.9-33.2,37.9-34.6s-19.5,9.9-26.8,14.8c-4.1,2.8-7.6,4.7-7.9,4.4s12.4-13.4,28.2-29.2l28.8-28.7-8.9,4.8c-11.3,6.1-24.1,14.7-34.7,23.2q-11.4,9.2-8.7,5.3c4.4-6.4,26.3-27.4,36-34.6,15.2-11.3,31.3-20.4,48-27.1,4.6-1.8-8.8-.2-19,2.3-9.2,2.3-31.2,12.3-39.7,18.1-6.6,4.5-4.4,1.6,3.4-4.4,23.5-18.1,42.1-26.2,66.8-28.8,3.6-.4,6.5-1,6.5-1.4s-1.7-2.9-3.8-5.6l-3.8-5-9.2-1.1c-10.6-1.2-14.7-3.3-6.6-3.5,4.9-.1,12.4-1.6,9.3-1.8-3.9-.3-22.9-12.1-22.9-14.2s1.9,0,4.2.8c2.2.8,5.9,1.3,8.2,1.1l4-.3-8.8-6.8c-7.9-6-8.5-6.7-6-6.7,1.6.1,4.6.7,6.6,1.4l3.7,1.3-1.9-3.7c-1.8-3.6-2.4-3.9-9.7-5.5-44.7-9.7-55.9-13.9-60.3-22.4-2.6-5.1-2.7-10.1-.2-10.1s6.2.9,11.7,1.9c10.5,2,20.5,3.3,20.5,2.6s-3.7-1.6-8.2-3.1c-11-3.5-20.7-8-23.5-10.6-2.7-2.5-6.3-11.6-6.3-15.9s.3-2.9,2.3-2.5c1.2.3,8.3,1.7,15.7,3.1ZM423.5,412c5.5,4.4,15.6,11.2,22.4,15.2s19.2,11.4,27.5,16.3l15.1,9,4.5,9c6.7,13.4,17.8,41.1,22.7,57,4.3,14.1,6.7,28.8,6.1,37.5q-.3,4.5-9.8,10.7c-5.2,3.5-9.8,6.3-10.2,6.3-1.4,0-.8-15.5.7-20.8.9-2.9,3-6.8,4.6-8.7,1.7-1.9,2.7-3.5,2.2-3.5-1.4,0-9.6,5.4-11.5,7.6s-4.8,12.3-4.8,16.8-.2,2.7-.4,2.5c-.4-.4-.9-3.6-2.1-16.4-.4-3.9-1.6-8.6-2.6-10.6-1.7-3.4-11.7-27.1-15.8-37.6l-2-5.2,4.4-6,4.5-6.1-5.2,2.1c-2.8,1.1-5.9,2.4-6.9,2.9-4,2.2-5.5,1.2-7.4-4.8l-1.7-5.7-9.6-4.5c-17.2-8.1-27.1-14.5-37.2-24.3-5.2-5.1-12-11.5-15-14.2-5.2-4.7-5.4-5-3-5.3,3-.5,20.9,1.7,23,2.8.8.4,2.8,1,4.4,1.4,2.5.6,1.6-.6-6.3-9.1-8.3-8.9-9.6-9.9-14.8-11.3-3.1-.8-5.8-2-6-2.6-.8-2.4,11.6-8.2,17.7-8.3,1.8-.1,5.7,2.4,12.5,7.9ZM382.2,462.9c8.9,6.7,26.4,18.2,45.8,30.3,7.9,4.8,14.3,9.6,15.5,11.4,1.1,1.6,6.7,13.4,12.3,26.2,11,24.7,12.5,30.1,12,42.7l-.3,6.9-5,3.8c-2.7,2-7.1,4.9-9.9,6.4l-4.9,2.7.5-8.4c.6-9.2,2.2-14,6.1-18.2,3.4-3.6,1.3-3.5-4.6.3-5.2,3.3-8.2,7.4-9.2,12.9l-.7,3.6-1.7-5.5c-1-3-5.2-12.7-9.4-21.4s-7.7-16.6-7.7-17.6,1.4-3.8,3.1-6.4c1.6-2.7,2.4-4.6,1.7-4.4-6.5,2.4-12.1,3.9-13.2,3.5-.7-.3-2-2.1-3-4.1-1.4-2.9-3.1-4.2-10-7.4-12.2-5.7-21.9-12.8-32.8-23.9l-9.8-9.8,8.8-.5c4.8-.2,10.6-.4,13-.4h4.3l-2.9-2.6c-1.7-1.4-5.6-4.8-8.8-7.5-5.5-4.8-6-5-12.8-5.5l-7.1-.5,4.4-4.4c5-4.9,11.1-8,15.6-8.1,2.1,0,5.3,1.7,10.7,5.9ZM228.9,495.7c4.7,3.5,7.1,8.1,7.1,13.7,0,8-4.1,13.3-12.1,15.6s-18.1-4.5-19.4-13.3c-2-13.3,13.9-23.7,24.4-16ZM786.1,494.4c8.8,3.7,12.2,13,8,22.2-5.1,11.1-21.7,11.6-27.8.8-4.8-8.4-2-17.8,6.7-22.2,5.1-2.6,8.4-2.8,13.1-.8ZM352.1,520.9c1.6,6.8,2.8,12.5,2.6,12.8-.9.8-6.9-22.9-7.2-28.5l-.5-5.7,1.1,4.5c.6,2.5,2.4,10.1,4,16.9ZM381.3,544.4c-1.5,1.3-20.8,15.5-42.8,31.6-39,28.6-54.5,40.5-75,57.8-13.3,11.2-13.3,11.3-2.5,4.1s13.4-8.3,23-14.1,28.5-17.1,42-25.2c32.1-19.4,31.8-19.2,30-17.4-6.7,7-95.4,67.8-122.5,84.1-16.1,9.6-20.5,15.1-20.5,25.4s5.7,14.6,17.7,14.5c8.9-.1,10.9-1.1,23.3-11.2,22-17.8,77.1-57.9,118.2-86,10-6.9,24.7-16.9,32.7-22.4,7.9-5.4,14.1-9.3,13.7-8.7s-10.7,9.1-22.9,18.9-31.2,25.2-42.2,34.3c-19,15.7-56.9,46-88.6,70.9-18.8,14.8-54.3,42.8-58,45.8l-2.9,2.3v-5.4c0-8.4-1.7-15.5-5.5-23.3-5.2-10.6-9.2-14.4-23.3-21.7-11.3-5.9-12.1-6.5-10.5-7.9,1-.8,10.8-8,21.8-15.9,51.7-37,73.1-52,86.5-60.7,8-5.2,33.6-22.2,57-37.7,45.3-30,52-34.3,53.3-34.4.5-.1-.4,1-2,2.3ZM409.8,630c2.7,6.3,7.1,15.9,9.7,21.3,4.7,9.6,5.2,10.2,22.6,26.8,18.8,18.1,20.8,20.8,26.3,35.4,3,8.1,7.6,23.8,7.2,24.3-.2.1-4.8-8.1-10.2-18.4l-9.9-18.7-19.7-19q-19.7-18.9-23.3-27.6c-4.1-9.6-8-24.5-8.9-33.6-.7-6.9-.8-7,6.2,9.5ZM721.8,704.6c.2.1-1.5,2.7-3.7,5.7-4.5,5.9-4.9,7.2-2.5,8.1,2.5,1,2.8.8,5.4-3.4,1.4-2.2,2.9-4,3.5-4s2.3,1.1,3.9,2.4l3,2.3-3.4,5.2c-3,4.8-3.2,5.4-1.7,6.8,2,2,3.7.8,7.3-5.3l2.5-4.2,3.9,2.6c2.2,1.4,4,3,4,3.5,0,1.7-12.8,18.2-15.3,19.9-.6.4-5.1-3-10-7.5s-11.2-10.3-14-12.8l-5.1-4.6,7.4-10.1,7.5-10,3.5,2.6c1.9,1.4,3.7,2.7,3.8,2.8ZM163.8,705.8c10.9,4.2,22.2,15.8,25.7,26.3,1.4,4,1.6,7.4,1.3,14.4-.9,17.2-9.3,29.6-25.3,37.1-7.2,3.5-7.7,3.6-17.2,3.2-8.5-.3-10.7-.7-16.5-3.5-11.5-5.4-19.4-14.3-23.3-26.1-2.6-8-1.8-21.9,1.6-29.2,9.2-19.5,33.9-29.7,53.7-22.2ZM310.1,752.5l-9.5,19.5-3.7-3.6-3.7-3.6,1.6-4.4,1.6-4.4-3.4-3.5c-3.9-4-4.4-4.1-8.5-1.9q-3,1.5-6.2-2.2c-1.8-2-3.3-4-3.3-4.4s8.4-4.8,18.8-9.8l18.7-9.1,3.6,3.9,3.6,3.9-9.6,19.6ZM693.2,737.4c1.6,1.2,1.5,1.5-.8,4.9-1.6,2.5-3.2,3.7-4.8,3.7-2.9,0-7.3,4-8.2,7.4-1.3,5.4,1.9,11,7.2,12.5,4.1,1.2,10.7-1.7,12.8-5.6,3.2-5.8,3.1-5.8,7-3.4,2,1.3,3.6,2.8,3.6,3.5s-1.3,3.3-2.9,5.9c-8.5,13.2-26,14.2-34.5,2-6.5-9.4-3.6-23.2,6.2-29.4,5-3.2,11.4-3.8,14.4-1.5ZM346,757.2c0,.5-2.5,4-5.6,7.9-9.2,11.6-10.7,17-5.4,19.9s8.4.8,17.7-11.7l5.9-8,4.2,3,4.1,3-5.9,7.6c-12.3,16.1-19.5,19.8-29.5,15.2-6.6-2.9-9.5-7.2-9.5-13.7s1.3-9.3,10.4-21.1l7.1-9.1,3.3,3.1c1.7,1.7,3.2,3.5,3.2,3.9ZM653.4,782.3c4.7,8.1,8.6,15.4,8.6,16.1,0,1.3-6.6,5.4-7.3,4.6-.5-.6-11.7-18.8-16.6-26.9-1.8-2.9-2.9-5.7-2.4-6.1,4.8-4.1,6.7-5,7.9-3.8.6.7,5,8,9.8,16.1ZM392.7,784c7.2,3.6,13.2,6.9,13.2,7.5.1.5-.8,2.5-1.9,4.3l-2,3.2-4.8-2.4-4.8-2.4-6.2,12.4c-3.4,6.8-6.7,12.4-7.2,12.4s-2.6-.7-4.5-1.4l-3.5-1.5,6-12.2c3.3-6.7,6-12.7,6-13.4s-1.8-2.4-4-3.9c-2.2-1.4-4-2.9-4-3.2,0-1.3,3.2-6.5,3.8-6.2s6.6,3.2,13.9,6.8ZM617.8,821.7c-.5.7-2.5,1.7-4.4,2.3l-3.5,1.2-11.7-11c-14.7-13.8-17.7-17-16.9-17.8s2.4-1.5,4.6-2.5l3.9-1.7,8.8,8.9c4.9,4.9,9.3,8.9,9.8,8.9s.6-5.3.2-13l-.7-12.9,4.8-2.3,4.8-2.3.6,20.5c.3,11.9.2,21-.3,21.7ZM435.7,801.1c6,2.2,12.2,10.9,12.3,16.9,0,7.4-5.3,16-11.7,18.6-9.3,3.9-20.8-.8-24.2-9.9-1.7-4.3-1.3-11.7.8-16.3,3.8-8.4,14.1-12.6,22.8-9.3ZM565.1,807.8c4,4.4,4.6,9.1,2,14.4l-2.1,4.3,5.2,5.2,5.1,5.1-4.4,1.2c-2.4.6-4.9,1.3-5.6,1.5s-2.9-1.9-4.9-4.6c-3-4.1-4.1-5-6.3-4.7-1.7.2-2.5.8-2.3,1.8.2.8.6,3.5.9,6.1l.6,4.7-4.2.4c-2.4.2-4.5,0-4.7-.4-.3-.4-1.6-6.3-2.9-13.2-1.3-6.8-3-14.5-3.6-17.1-.6-2.5-.9-4.9-.5-5.2,1.3-1.3,13.4-3.2,19-2.9,5.2.2,6.2.6,8.7,3.4ZM476,810.2c5.9,3.1,6.8,4.8,4.4,8.1-2.3,3.2-2.8,3.3-6.5.6-3.2-2.2-6.2-2.2-6.7.1-.1.9,1.9,2.6,5.5,4.5,9.7,5,11.3,12.4,4.3,18.7-2.5,2.3-3.9,2.8-8.5,2.8s-5.9-.3-10-4.1c-5.2-4.8-5.5-6.2-2-8.5,2.4-1.6,2.6-1.5,6,1.5,3.6,3.2,5.9,3.8,8.4,2.2,2.4-1.5.5-3.9-5.2-6.6-10.2-4.8-11.3-14.9-2.2-19.8,4.1-2.2,7.3-2.1,12.5.5ZM521,813.5v4.4l-7.2.3c-7.1.3-7.3.4-7.6,3l-.3,2.7,6.8-.2,6.8-.2.3,4.2.3,4.2-6.7.3c-6.1.3-6.7.5-7,2.5-.4,2.2-.1,2.3,7.7,2.3h8l-.3,4.2-.3,4.3-12.2.3-12.3.3v-11.8c-.1-6.5-.3-14.6-.6-18l-.4-6.2,8.8-.4c4.8-.1,10.4-.4,12.5-.5l3.7-.2v4.5Z" fill="#4287f5" stroke-width="0"/>
  <path d="M435.4,230.9c-6,2.7-8.8,7.2-8.9,14.1,0,4.7.5,6.3,2.9,9.4,5.1,6.8,12.1,8.3,19.3,4.1,5.3-3.2,7.3-6.9,7.3-13.8s-.4-5.9-3.5-9.5c-2.3-2.6-5-4.5-7.3-5.2-4.8-1.3-5-1.3-9.8.9Z" fill="#4287f5" stroke-width="0"/>
  <path d="M580.2,250c-2.3,7.1-4.2,13.4-4.2,13.9,0,1.4,8.8,4.1,13.2,4.1,8,0,13.8-5.9,13.8-14.1s-2.7-10.9-9-14.2q-9-4.6-13.8,10.3Z" fill="#4287f5" stroke-width="0"/>
  <path d="M313.5,302.6c.4,1.1,1.4,3.8,2.2,6.1l1.5,4.3,2.8-2.3c1.6-1.2,2.9-2.4,2.9-2.7s-2.2-2-5.1-3.9c-3.9-2.5-4.9-2.9-4.3-1.5Z" fill="#4287f5" stroke-width="0"/>
  <path d="M138.4,710c-1.1.4-2.8,2-3.7,3.4-1.3,2-2.6,2.6-5.1,2.6-4.7,0-9.6,4.2-9.6,8.1s-1.2,3.9-4.5,7c-5,4.7-5.5,6.7-2.4,11.1,2.1,2.9,2.1,3.2.5,5.8-2.5,4.3-2,6.9,2.1,10.8,2.8,2.6,3.7,4.2,3.5,6.2s.6,3.9,2.9,6.5c3,3.3,3.6,3.6,6.9,3.1,4.1-.6,6.4.6,8.3,4.4s6.1,3.8,10.5,1.4c3.1-1.7,3.5-1.7,6.2-.1,4.1,2.5,7.6,1.3,10.6-3.5,2.3-3.5,2.8-3.8,5.8-3.3,2.9.6,3.6.2,6.4-3,2.8-3.1,3.1-4.1,2.6-7.3-.5-3.4-.3-3.9,2-5,1.4-.6,3.3-2.3,4.2-3.7,1.6-2.5,1.6-2.7-.5-5.5-2.5-3.4-2.6-4.8-.6-7.4,2.8-3.7,1.9-7.2-3-11.2-3.6-3-4.3-4.2-3.9-6.1.8-3.2-5.3-9.3-9.3-9.3s-3.9-1-5.8-3c-3.2-3.3-7.4-4-9.5-1.5-.7.8-2.3,1.5-3.7,1.5s-2.6-.7-2.9-1.5c-.7-1.6-4.6-1.9-8-.5ZM143.5,724c2.5,2.8,8.2,2.7,11.2-.2,2.2-2.1,2.6-2.1,5.1-.7,2,1.1,3,2.8,3.9,6.3,1.4,5.5,3.7,8.6,6.5,8.6s3.2,2.4,1.3,5.4c-1,1.5-1.6,4-1.4,6.5.2,3-.4,5.1-2.9,9-3,4.9-3.3,5.1-7.5,5.1s-4.9.6-6.7,2.5c-3.3,3.5-8.7,3.5-10,.1-1.3-3.6-5.4-5.9-9.2-5.3-2.6.3-3.8-.1-5.5-2-2.8-2.9-2.8-2.4-.2-6.7,2.3-3.9,1.9-5.4-2.4-9.4-2.2-2-2.4-2.8-1.6-5.2.8-2.1,1.8-2.9,4.6-3.3,4.9-.8,7.3-3.3,7.3-7.4s.5-3.6,2.3-4.3c3.1-1.2,3.2-1.2,5.2,1Z" fill="#4287f5" stroke-width="0"/>
  <path d="M302.5,741.7c-4,2.1-3.9,1.9-2.3,4.2,1.4,2,1.5,1.9,3.7-1.9,1.2-2.2,2.1-4,1.9-4-.2.1-1.6.8-3.3,1.7Z" fill="#4287f5" stroke-width="0"/>
  <path d="M425.4,810.1c-4.9,2.4-6.9,10.5-3.6,14.5,4.1,5.1,9.1,5.7,13.3,1.5,7.5-7.5-.4-20.5-9.7-16Z" fill="#4287f5" stroke-width="0"/>
  <path d="M550.2,813.7c-1.8.4-2.2.9-1.7,2.6.4,1.2.9,3,1.1,3.9.6,2.2,1.5,2.2,5.9.4,2.6-1.1,3.5-2.1,3.5-3.9,0-3.4-2.4-4.2-8.8-3Z" fill="#4287f5" stroke-width="0"/>
  <path d="M438.5,318.4c-2.7.7-5.9,1.8-7,2.5-1.6,1,1.6,1.1,17.3.8,18.2-.4,19.5-.5,21.5-2.6l2.1-2.1h-14.4c-8,.1-16.7.7-19.5,1.4Z" fill="#4287f5" stroke-width="0"/>
  <path d="M402,332.5l-4.5,2.4h14.5c13.4,0,14.8-.2,19-2.4l4.5-2.4h-14.5c-13.4,0-14.8.2-19,2.4Z" fill="#4287f5" stroke-width="0"/>
  <path d="M377.7,347.5c-2,1.4-3.7,2.8-3.7,3.1s7.3.4,16.3.3l16.2-.2,3.3-2.8,3.3-2.9h-15.8c-15.3,0-16,.1-19.6,2.5Z" fill="#4287f5" stroke-width="0"/>
  <path d="M359.8,361.7c-6.2,3.8-4.7,4.3,13.5,4.3h17.3l2.9-3,2.9-3h-17c-14.1,0-17.4.3-19.6,1.7Z" fill="#4287f5" stroke-width="0"/>
  <path d="M341.4,378.5l-2.7,2.5h17c16.5,0,17-.1,20.3-2.5l3.4-2.5h-17.7c-17.4,0-17.6,0-20.3,2.5Z" fill="#4287f5" stroke-width="0"/>
  <path d="M328,393.7l-2.2,2.8,15.8.3,15.8.3,3-3.1,3.1-3h-33.4l-2.1,2.7Z" fill="#4287f5" stroke-width="0"/>
  <path d="M316.2,409l-2.4,3h17.3c15.2,0,17.3-.2,18.5-1.8,2.8-3.6,1.8-3.9-14.8-4l-16.3-.2-2.3,3Z" fill="#4287f5" stroke-width="0"/>
  <path d="M306.6,424.5c-.9,1.3-1.6,2.7-1.6,3s8.5.5,18.8.5h18.9l1.1-2.5c.7-1.4,1.2-2.8,1.2-3,0-.3-8.3-.5-18.4-.5h-18.4l-1.6,2.5Z" fill="#4287f5" stroke-width="0"/>
  <path d="M689.7,425.6c-2.1,2.1-.5,3.4,4.4,3.4s5-.3,4.7-1.8c-.2-1.2-1.4-1.8-4.3-2-2.3-.2-4.4,0-4.8.4Z" fill="#4287f5" stroke-width="0"/>
  <path d="M299.6,439.5c-.9,1.3-1.6,2.7-1.6,3s6.7.5,14.8.5h14.8l2.9-3,2.9-3h-16.1c-16,0-16.1,0-17.7,2.5Z" fill="#4287f5" stroke-width="0"/>
  <path d="M694,439.9c0,3.3,1.3,4.1,7.1,4.1s5.8-.1,5-2.3c-.7-1.9-1.7-2.2-6.5-2.5-3.1-.2-5.6.1-5.6.7Z" fill="#4287f5" stroke-width="0"/>
  <path d="M292.3,456l-1.1,3h26.3l1.7-3,1.7-3h-27.5l-1.1,3Z" fill="#4287f5" stroke-width="0"/>
  <path d="M701.4,456.5c.3.9.6,1.9.6,2.1s2.5.4,5.6.4c4.7,0,5.5-.3,5.2-1.8-.3-1.3-1.5-1.8-6.2-2-5.1-.3-5.8-.1-5.2,1.3Z" fill="#4287f5" stroke-width="0"/>
  <path d="M287.5,469.5c-.3.8-.7,2.2-1,3-.4,1.3,1.6,1.5,13.5,1.5s14-.3,14-1.4.3-2.1.6-3c.5-1.4-1-1.6-13-1.6s-13.7.3-14.1,1.5Z" fill="#4287f5" stroke-width="0"/>
  <path d="M706.9,472.2c.7,1.9,1.7,2.4,5.5,2.6,4.3.3,4.6.2,4.6-2.2s-.3-2.6-5.5-2.6-5.4.1-4.6,2.2Z" fill="#4287f5" stroke-width="0"/>
  <path d="M283.7,484.7c-.4.3-.7,1.7-.7,3v2.4l13.2-.2c13.5-.1,16.2-.5,15.3-1.9-.3-.5-.1-1.1.5-1.5s.8-1.1.5-1.6c-.7-1-27.8-1.3-28.8-.2Z" fill="#4287f5" stroke-width="0"/>
  <path d="M711.4,486.5c.3.9.6,2.1.6,2.6s2.1.9,4.6.9c4.1,0,4.5-.2,4.2-2.3-.3-1.9-1-2.2-5.2-2.5s-4.8-.1-4.2,1.3Z" fill="#4287f5" stroke-width="0"/>
  <path d="M280.7,499.7c-.4.3-.7,1.7-.7,3v2.3h32v-6h-15.3c-8.5,0-15.7.3-16,.7Z" fill="#4287f5" stroke-width="0"/>
  <path d="M713,502.9c0,2.2,1.9,3.1,6.6,3.1s3.4-.3,3.4-2.5-.3-2.5-5-2.5-5,.3-5,1.9Z" fill="#4287f5" stroke-width="0"/>
  <path d="M278,517v3h36.1l-.3-2.8-.3-2.7-17.7-.3-17.8-.2v3Z" fill="#4287f5" stroke-width="0"/>
  <path d="M713,518.5c0,2.5.2,2.6,5.8,2.3,5-.3,5.7-.6,6-2.6.3-2.1,0-2.2-5.7-2.2s-6.1.1-6.1,2.5Z" fill="#4287f5" stroke-width="0"/>
  <path d="M277,532v3h41v-2.4c0-3.3-1.7-3.6-22.7-3.6h-18.3v3Z" fill="#4287f5" stroke-width="0"/>
  <path d="M711,533.5c0,2.4.2,2.5,7,2.5s7-.1,7-2.5-.2-2.5-7-2.5-7,.1-7,2.5Z" fill="#4287f5" stroke-width="0"/>
  <path d="M277.3,547.7l.4,2.8,15.3.3c15,.2,15.4.2,19.2-2.3,2.1-1.4,3.8-2.7,3.8-3s-8.8-.5-19.5-.5h-19.6l.4,2.7Z" fill="#4287f5" stroke-width="0"/>
  <path d="M707.6,547.6c-1.2,3.1-.5,3.4,7.9,3.4s8.5,0,8.5-2.5-.1-2.5-7.9-2.5-8,.3-8.5,1.6Z" fill="#4287f5" stroke-width="0"/>
  <path d="M280.3,560.7c-1.9.4-2.1.9-1.6,4.1.3,2,.8,3.9,1,4.2.6.7,6.8-2.9,10.5-6.1l3.3-2.8h-5.5c-3,.1-6.5.4-7.7.6Z" fill="#4287f5" stroke-width="0"/>
  <path d="M703.6,561.6c-1.2,3.1-.5,3.4,8.8,3.4s9.5-.3,10-1.7c1-2.5-1.2-3.3-10-3.3s-8.3.3-8.8,1.6Z" fill="#4287f5" stroke-width="0"/>
  <path d="M698.6,575.6c-1.2,3.1-.4,3.4,10.9,3.4h11.5v-5h-10.9c-9,0-11,.3-11.5,1.6Z" fill="#4287f5" stroke-width="0"/>
  <path d="M694.2,589.5l-1.2,2.6,12.8-.3c12.3-.3,12.7-.4,13-2.6s.2-2.2-11.6-2.2-11.9,0-13,2.5Z" fill="#4287f5" stroke-width="0"/>
  <path d="M689.7,601.8c-1,1-1.7,2.2-1.7,2.6s6,.5,13.3.4c12.8-.3,13.2-.4,13.5-2.6s.2-2.2-11.6-2.2-12.1.3-13.5,1.8Z" fill="#4287f5" stroke-width="0"/>
  <path d="M684.4,613.7c-1.8.2-4,1.3-5,2.4-1.7,1.9-1.5,1.9,14.5,1.9s16.3-.2,16.8-1.5c.3-.9.4-1.8.2-2-.7-.6-23.2-1.3-26.5-.8Z" fill="#4287f5" stroke-width="0"/>
  <path d="M674,627.6c0,.3.5,1.4,1,2.5,1,1.7,2.3,1.9,15,1.9s14-.2,15-1.9c.5-1.1,1-2.2,1-2.5s-7.2-.6-16-.6-16,.3-16,.6Z" fill="#4287f5" stroke-width="0"/>
  <path d="M684.2,643.2c1.3,1.9,2.6,2.4,7.5,2.6,5.5.3,6,.1,7.1-2.3l1.2-2.5h-17.2l1.4,2.2Z" fill="#4287f5" stroke-width="0"/>
  <path d="M372.2,663.5l-3.7,3.4h6.3c3.4.1,6.2-.2,6.2-.5,0-1.2-3.4-6.4-4.2-6.4s-2.5,1.6-4.6,3.5Z" fill="#4287f5" stroke-width="0"/>
  <path d="M352.4,677.8c-1.1.4-3.2,1.6-4.7,2.7l-2.7,2,21.2-.3c11.7-.2,21.4-.5,21.7-.8s-.4-1.3-1.4-2.4c-1.7-1.8-3-2-16.9-1.9-8.3.1-16,.4-17.2.7Z" fill="#4287f5" stroke-width="0"/>
  <path d="M341.5,695l2.9,3h29.4c29.4,0,29.5,0,27.7-2-3.1-3.4-8.2-4-35.9-4h-27l2.9,3Z" fill="#4287f5" stroke-width="0"/>
  <path d="M358.5,710.3c2.8,2.1,4,2.2,31,2.7,15.4.3,28.8.3,29.8.1,1.4-.3,1-.9-2-2.7-3.8-2.3-4.2-2.3-32.8-2.3h-29l3,2.2Z" fill="#4287f5" stroke-width="0"/>
  <path d="M376,726l4.5,3h51.3l-1.1-3-1.1-3h-58.1l4.5,3Z" fill="#4287f5" stroke-width="0"/>
  <path d="M397,739.1c6.7,4.5,8.5,4.9,24.5,4.9s15.5-.1,15.5-1.8c0-3.9-1.7-4.2-21.9-4.2s-19.1.3-18.1,1.1Z" fill="#4287f5" stroke-width="0"/>
  <path d="M429.9,754.5c4.3,1.9,14.1,4.5,14,3.7-.4-3.8-1.6-4.4-9.4-4.8s-7.9-.4-4.6,1.1Z" fill="#4287f5" stroke-width="0"/>
</svg>